<svg xmlns="http://www.w3.org/2000/svg" viewBox="0 0 2351.3 2351.3"><defs><clipPath id="b"><path d="M0 2055.1h2055.1V0H0v2055.1z"/></clipPath><clipPath id="c"><path d="M865.36 1005.8h384v-347h-384v347z"/></clipPath><clipPath id="a"><path d="M1486.1 1425.8a1043.7 1033.8 0 1 1-2087.5 0 1043.7 1033.8 0 1 1 2087.5 0z" transform="matrix(.89346 0 0 -.90205 632.34 2313.7)" stroke="#fff" stroke-width="103.88" fill="none"/></clipPath></defs><g clip-path="url(#a)" transform="matrix(1.25 0 0 -1.25 -108.78 2460.1)"><path d="M28.364 2026.8h2000V26.8h-2000v2000z" fill-rule="evenodd" fill="#f3f4f4"/><path d="M478.36 746.75h210v-190h-210v190zm1400.04-550h150v-170h-150v170zm-1140.04 260h260V247.08h-260v209.67zM1538.4 2026.8h290v-220h-290v220z" fill-rule="evenodd" fill="#7fc7ed"/><path d="M1168.4 1756.8h660v-810h-660v810zm-1140.036 0h140v-960h-140v960zM478.36 196.75h210v-170h-210v170z" fill-rule="evenodd" fill="#83cdac"/><path d="M1118.4 1506.8h-950v20h950v-20zM738.36 996.75h-570v20h570v-20zm180 910.05h-890v20h890v-20zm-440-1300.05h-450v20h450v-20zM2028.4 1586.8h-150v20h150v-20zm0-570h-150v20h150v-20zm0-250.05h-150v20h150v-20zm-1290.04-420h-710v20h710v-20zm1090.04 310h-780v20h780v-20z" fill-rule="evenodd" fill="#ececec"/><path d="M898.36 2026.8h20v-910h-20v910zm0-1830.05h20v-170h-20v170zm680.04 480h20v-430h-20v430z" fill-rule="evenodd" fill="#ececec"/><path d="M2028.4 1756.8H28.4v50h2000v-50zM738.36 746.75h-710v50h710v-50zm1140.04 150h-1147v50h1147v-50zm150-700H28.4v50h2000v-50zm0 920.05h-1340v50h1340v-50z" fill-rule="evenodd" fill="#fff"/><path d="M168.36 2026.8h50V26.8h-50v2000zm1660.04 0h50V26.8h-50v2000zm-1140.04 0h50V26.8h-50v2000zm430.04-220h50v-910h-50v910zM998.36 896.75h50v-700h-50v700zM1488.4 2026.8h50v-910h-50v910z" fill-rule="evenodd" fill="#fff"/><path d="M378.36 2026.8h100V26.8h-100v2000zm950.04 0h100V26.8h-100v2000z" fill-rule="evenodd" fill="#fee379"/><path d="M2028.4 1286.8H28.4v100h2000v-100zm-1-830.05h-1549v100h1549v-100z" fill-rule="evenodd" fill="#fee379"/><g clip-path="url(#b)"><g clip-path="url(#c)" opacity=".3"><path d="M866.57 658.75c48.69 46.36 154.72 112.35 247.51 144.89 50.55 17.73 86.91 39.46 101.97 55.07 52.3 54.2 41.88 116.38-23.29 138.89-65.17 22.5-160.41-3.19-212.71-57.4-15.07-15.6-28.34-45.31-28.73-80.36-.7-64.34-43.2-152.26-85.96-200.67l1.21-.42z" fill="#d0d0d0"/></g><path d="M867.24 659.29c4.29 83.52 50.31 219.18 117.02 304.56 36.34 46.52 53.06 91.85 53.06 119.36 0 95.54-76.54 173-170.96 173s-170.96-77.46-170.96-173c0-27.51 16.72-72.84 53.06-119.36 66.71-85.38 112.73-221.04 117.02-304.56h1.76z" fill="#de5764"/><path d="M867.24 659.29c4.29 83.52 50.31 219.18 117.02 304.56 36.34 46.52 53.06 91.85 53.06 119.36 0 95.54-76.54 173-170.96 173s-170.96-77.46-170.96-173c0-27.51 16.72-72.84 53.06-119.36 66.71-85.38 112.73-221.04 117.02-304.56h1.76z" stroke-linejoin="round" stroke="#ec5c6a" stroke-linecap="round" stroke-miterlimit="10" stroke-width="10" fill="none"/><path d="M803.86 1087.3c0 34.52 27.98 62.5 62.5 62.5s62.5-27.98 62.5-62.5-27.98-62.5-62.5-62.5-62.5 27.98-62.5 62.5" fill-rule="evenodd" fill="#fff"/><path d="M803.86 1087.3c0 34.52 27.98 62.5 62.5 62.5s62.5-27.98 62.5-62.5-27.98-62.5-62.5-62.5-62.5 27.98-62.5 62.5z" stroke-linejoin="round" stroke="#ec5c6a" stroke-linecap="round" stroke-miterlimit="10" stroke-width="5" fill="none"/></g></g></svg>